<?xml version="1.0" encoding="utf-8"?>
<!-- Generator: Adobe Illustrator 25.2.0, SVG Export Plug-In . SVG Version: 6.00 Build 0)  -->
<svg version="1.1" id="Layer_1" xmlns="http://www.w3.org/2000/svg" xmlns:xlink="http://www.w3.org/1999/xlink" x="0px" y="0px"
	 viewBox="0 0 839 107.2" style="enable-background:new 0 0 839 107.2;" xml:space="preserve">
<style type="text/css">
	.st0{fill:#FFDB5A;}
	.st1{fill:#34E7FF;}
	.st2{fill:#757575;}
</style>
<g>
	<defs>
		<path id="SVGID_1_" d="M10,5.5h819c5.5,0,10,4.5,10,10v68.9c0,5.5-4.5,10-10,10H10c-5.5,0-10-4.5-10-10V15.5C0,10,4.5,5.5,10,5.5z
			"/>
	</defs>
	<clipPath id="SVGID_2_">
		<use xlink:href="#SVGID_1_"  style="overflow:visible;"/>
	</clipPath>
</g>
<path class="st0" d="M599,1.7c5.6-3.4,12.9-1.6,16.2,4c1.1,1.7,1.6,3.7,1.7,5.8l0.6,29.9c0.1,6.5-5.1,11.9-11.6,12
	c-2.1,0-4.1-0.5-5.9-1.5l-26.5-14.4c-5.7-3-7.8-10.1-4.7-15.8c1-1.9,2.5-3.4,4.3-4.5L599,1.7z"/>
<ellipse class="st1" cx="773" cy="87" rx="20.3" ry="20.2"/>
<g id="Layer_2_2_">
	<g id="Layer_1-2_1_">
		<path class="st2" d="M0.7,69C0.3,69,0,68.6,0,68.2c0,0,0,0,0,0v-38c0-0.4,0.4-0.7,0.8-0.7c0.4,0,0.6,0.3,0.7,0.7v38
			C1.5,68.6,1.1,69,0.7,69z"/>
		<path class="st2" d="M37.3,28h-0.2l-10.6-2.3c-0.4-0.1-0.7-0.5-0.6-0.9c0.1-0.4,0.5-0.7,0.9-0.6l10.6,2.3c0.4,0.1,0.6,0.5,0.6,0.9
			C37.9,27.8,37.6,28,37.3,28z"/>
		<path class="st2" d="M18.6,27.2c-0.4,0-0.8-0.3-0.8-0.7c0-0.4,0.3-0.8,0.7-0.8l0,0l8-1.5c0.4-0.1,0.8,0.2,0.9,0.6
			c0.1,0.4-0.2,0.8-0.6,0.9l-8,1.5C18.7,27.2,18.6,27.2,18.6,27.2z"/>
		<path class="st2" d="M10.1,33.5c-0.1,0-0.1,0-0.2,0L1,30.9c-0.4-0.1-0.6-0.6-0.4-1c0.1-0.3,0.5-0.5,0.8-0.5l8.9,2.6
			c0.4,0.1,0.6,0.5,0.5,0.9C10.7,33.3,10.4,33.5,10.1,33.5z"/>
		<path class="st2" d="M10.1,73.5c-0.1,0-0.2,0-0.3-0.1l-9.3-4.5c-0.4-0.2-0.5-0.6-0.3-1c0,0,0,0,0,0c0.2-0.4,0.6-0.5,1-0.4
			c0,0,0,0,0,0l9.3,4.5c0.4,0.2,0.5,0.6,0.4,1C10.7,73.3,10.4,73.5,10.1,73.5z"/>
		<path class="st2" d="M28.3,42.2c-0.4,0-0.7-0.3-0.7-0.7l-0.1-12.3c0-0.4,0.3-0.7,0.7-0.7c0,0,0,0,0,0l0,0c0.4,0,0.7,0.3,0.7,0.7
			c0,0,0,0,0,0l0.1,12.3C29.1,41.8,28.7,42.2,28.3,42.2L28.3,42.2z"/>
		<path class="st2" d="M18.6,25.7L18.6,25.7c0.4,0,0.7,0.3,0.7,0.7v3.4c0,0.4-0.3,0.7-0.7,0.7l0,0c-0.4,0-0.7-0.3-0.7-0.7v-3.4
			C17.9,26.1,18.2,25.7,18.6,25.7z"/>
		<path class="st2" d="M10.1,73.5c-0.4,0-0.7-0.3-0.8-0.7c0,0,0,0,0,0V32.8c0-0.4,0.3-0.8,0.7-0.8c0.4,0,0.8,0.3,0.8,0.7
			c0,0,0,0.1,0,0.1v39.9C10.8,73.1,10.5,73.4,10.1,73.5z"/>
		<path class="st2" d="M28.3,29.9c-0.1,0-0.1,0-0.2,0l-9.7-2.5c-0.4-0.1-0.6-0.5-0.5-0.9c0.1-0.4,0.5-0.6,0.9-0.5l9.7,2.5
			c0.4,0.1,0.6,0.6,0.4,1C28.8,29.6,28.5,29.8,28.3,29.9z"/>
		<path class="st2" d="M20,31.3c-0.1,0-0.1,0-0.2,0l-9.1-2.5c-0.4-0.1-0.6-0.5-0.5-0.9c0,0,0,0,0,0c0.1-0.4,0.5-0.6,0.9-0.5l9.1,2.5
			c0.4,0.1,0.6,0.5,0.6,0.9C20.6,31.1,20.3,31.3,20,31.3L20,31.3z"/>
		<path class="st2" d="M28.3,29.9c-0.4,0-0.7-0.3-0.7-0.7c0-0.3,0.2-0.6,0.6-0.7l8.4-1.9c0.4-0.1,0.8,0.2,0.8,0.6
			c0.1,0.4-0.2,0.7-0.5,0.8l-8.4,2H28.3z"/>
		<path class="st2" d="M10.3,73.5c-0.3,0-0.5-0.2-0.7-0.4c-0.2-0.4,0-0.8,0.3-1l9.6-4.5c0.4-0.1,0.8,0.1,0.9,0.4
			c0.1,0.3,0,0.7-0.3,0.9l-9.6,4.5C10.5,73.4,10.4,73.5,10.3,73.5z"/>
		<path class="st2" d="M37.4,32.1L37.4,32.1c-0.4,0-0.7-0.3-0.7-0.7c0,0,0,0,0,0l0-4.1c0-0.4,0.3-0.7,0.7-0.7c0,0,0,0,0,0l0,0
			c0.4,0,0.7,0.3,0.7,0.7c0,0,0,0,0,0l-0.1,4.1C38.2,31.8,37.8,32.1,37.4,32.1C37.4,32.1,37.4,32.1,37.4,32.1z"/>
		<path class="st2" d="M28.3,42.2c-0.1,0-0.1,0-0.2,0l-8.3-2.4c-0.4-0.1-0.6-0.6-0.4-1c0.1-0.3,0.5-0.5,0.8-0.5l8.3,2.4
			c0.4,0.1,0.6,0.5,0.5,0.9C28.9,41.9,28.6,42.1,28.3,42.2z"/>
		<path class="st2" d="M19.9,68.9L19.9,68.9c-0.4,0-0.7-0.1-0.7-0.2v-4.1c0-0.1,0.3-0.2,0.7-0.2l0,0c0.4,0,0.7,0.1,0.7,0.2v4.1
			C20.6,68.8,20.3,68.9,19.9,68.9z"/>
		<path class="st2" d="M19.9,45.2c-0.4,0-0.7-0.3-0.7-0.7c0-0.3,0.2-0.6,0.5-0.7l8.7-3.1c0.4-0.2,0.8,0,1,0.4s0,0.8-0.4,1
			c0,0-0.1,0-0.1,0l-8.7,3.1C20.1,45.2,20,45.2,19.9,45.2z"/>
		<path class="st2" d="M19.9,45.3L19.9,45.3c-0.4,0-0.7-0.3-0.7-0.7c0,0,0,0,0,0v-14c0-0.4,0.3-0.7,0.8-0.7c0,0,0,0,0,0l0,0
			c0.4,0,0.7,0.3,0.7,0.7l0,14C20.7,44.9,20.4,45.3,19.9,45.3C19.9,45.3,19.9,45.3,19.9,45.3z"/>
		<path class="st2" d="M0.9,30.7c-0.4,0-0.7-0.3-0.7-0.7c0-0.4,0.3-0.7,0.6-0.7l10.1-1.9c0.4-0.1,0.8,0.2,0.8,0.6
			c0,0.4-0.2,0.7-0.5,0.8l-10.1,2L0.9,30.7z"/>
		<path class="st2" d="M10.1,33.5c-0.4,0-0.7-0.3-0.7-0.7c0-0.4,0.3-0.7,0.6-0.7l9.9-2.3c0.4-0.1,0.8,0.2,0.9,0.6s-0.2,0.8-0.6,0.9
			l0,0l-9.9,2.3C10.2,33.5,10.2,33.5,10.1,33.5z"/>
		<path class="st2" d="M28.7,49.7L28.7,49.7c-0.4,0-0.7-0.3-0.7-0.7V34.2c0-0.4,0.3-0.7,0.7-0.7l0,0l0,0c0.4,0,0.7,0.3,0.7,0.7
			c0,0,0,0,0,0l0,14.8C29.4,49.3,29.1,49.7,28.7,49.7z"/>
		<path class="st2" d="M39.1,37.7c-0.3,0-0.6-0.2-0.7-0.5c-0.1-0.4,0.1-0.8,0.5-0.9c0,0,0,0,0,0l9.3-2.6c0.4-0.1,0.8,0,1,0.4
			c0.1,0.4,0,0.8-0.4,1c0,0-0.1,0-0.1,0l-9.3,2.6C39.2,37.7,39.2,37.7,39.1,37.7z"/>
		
			<rect x="42.6" y="27.7" transform="matrix(0.2428 -0.9701 0.9701 0.2428 0.8738 67.0168)" class="st2" width="1.5" height="10.5"/>
		<path class="st2" d="M18.7,53.5c-0.4,0-0.7-0.3-0.7-0.8c0-0.3,0.2-0.6,0.5-0.7l10.4-3.8c0.4-0.1,0.8,0.1,0.9,0.4s-0.1,0.8-0.4,0.9
			L19,53.4C18.9,53.4,18.8,53.5,18.7,53.5z"/>
		<path class="st2" d="M39.1,80.9L39.1,80.9c-0.4,0-0.7-0.3-0.7-0.7l0-16c0-0.4,0.3-0.7,0.7-0.7c0,0,0,0,0,0l0,0
			c0.4,0,0.7,0.3,0.8,0.7c0,0,0,0,0,0v16C39.8,80.6,39.5,80.9,39.1,80.9C39.1,80.9,39.1,80.9,39.1,80.9z"/>
		<path class="st2" d="M48.5,49.7c-0.4,0-0.7-0.3-0.7-0.7V34.2c0-0.4,0.3-0.7,0.7-0.7s0.7,0.3,0.7,0.7l0,0V49
			C49.2,49.4,48.9,49.7,48.5,49.7L48.5,49.7z"/>
		<path class="st2" d="M18.5,64.7c-0.4,0-0.7-0.3-0.7-0.7c0,0,0,0,0,0V52.9c0-0.4,0.3-0.8,0.7-0.8c0.4,0,0.8,0.3,0.8,0.7
			c0,0,0,0.1,0,0.1V64C19.2,64.4,18.9,64.7,18.5,64.7z"/>
		<path class="st2" d="M48.5,49.7c-0.4,0-0.7-0.3-0.7-0.7c0-0.3,0.2-0.6,0.5-0.7l7.8-2.9c0.4-0.1,0.8,0.1,0.9,0.5
			c0.1,0.3-0.1,0.7-0.4,0.9l-7.8,2.9C48.6,49.7,48.5,49.7,48.5,49.7z"/>
		<path class="st2" d="M28.1,57.4c-0.3,0-0.6-0.2-0.7-0.5c-0.1-0.4,0.1-0.8,0.4-0.9c0,0,0,0,0,0l11-4.1c0.4-0.1,0.8,0.1,0.9,0.5
			c0.1,0.4-0.1,0.8-0.4,0.9l-11,4.1C28.3,57.4,28.2,57.4,28.1,57.4z"/>
		<path class="st2" d="M28.1,57.4c-0.1,0-0.2,0-0.3,0l-9.3-3.6c-0.4-0.2-0.6-0.6-0.4-1c0.2-0.4,0.6-0.6,1-0.4l9.3,3.6
			c0.4,0.2,0.6,0.6,0.4,1C28.7,57.2,28.4,57.4,28.1,57.4z"/>
		<path class="st2" d="M39.1,53.1c-0.1,0-0.2,0-0.2,0l-10.4-3.5c-0.4-0.1-0.6-0.5-0.5-0.9c0.1-0.4,0.5-0.6,0.9-0.5l0,0l10.4,3.5
			c0.4,0.1,0.6,0.6,0.4,0.9C39.7,52.9,39.4,53.1,39.1,53.1z"/>
		<path class="st2" d="M56.2,46.7c-0.1,0-0.1,0-0.2,0l-7.7-2.5c-0.4-0.1-0.6-0.5-0.5-0.9c0,0,0,0,0,0c0.1-0.4,0.5-0.6,0.9-0.5
			l7.7,2.5c0.4,0.1,0.6,0.5,0.5,0.9C56.8,46.6,56.5,46.8,56.2,46.7L56.2,46.7z"/>
		<path class="st2" d="M28.8,35.1c-0.4,0-0.7-0.3-0.7-0.8c0-0.3,0.2-0.6,0.5-0.7l9.5-2.7c0.4-0.1,0.8,0.1,0.9,0.5
			c0.1,0.4-0.1,0.8-0.5,0.9L29,35.1C28.9,35.1,28.9,35.1,28.8,35.1z"/>
		<path class="st2" d="M39.3,37.8c-0.1,0-0.1,0-0.2,0l-10.5-2.7c-0.4-0.1-0.7-0.5-0.6-0.9c0.1-0.4,0.5-0.7,0.9-0.6c0,0,0.1,0,0.1,0
			l10.5,2.7c0.4,0.1,0.6,0.5,0.5,0.9C39.9,37.6,39.6,37.8,39.3,37.8z"/>
		<path class="st2" d="M28.1,68.8c-0.1,0-0.2,0-0.3-0.1l-9.7-4.1c-0.4-0.2-0.6-0.6-0.4-1c0.2-0.4,0.6-0.6,1-0.4c0,0,0,0,0,0l9.7,4.1
			c0.4,0.2,0.5,0.6,0.4,1C28.7,68.7,28.4,68.8,28.1,68.8z"/>
		<path class="st2" d="M39.1,80.9c-0.1,0-0.2,0-0.3-0.1l-10.4-4.9v-7.3c0-0.4,0.3-0.8,0.7-0.8c0.4,0,0.8,0.3,0.8,0.7
			c0,0,0,0.1,0,0.1V75l9.6,4.5c0.4,0.2,0.5,0.6,0.3,1C39.6,80.8,39.3,80.9,39.1,80.9z"/>
		<path class="st2" d="M28,68.8L28,68.8c-0.4,0-0.7-0.3-0.7-0.7c0,0,0,0,0,0l0-11.4c0-0.4,0.3-0.7,0.7-0.7l0,0
			c0.4,0,0.7,0.3,0.8,0.7c0,0,0,0,0,0l0,11.4C28.7,68.5,28.4,68.8,28,68.8C28,68.8,28,68.8,28,68.8z"/>
		<path class="st2" d="M28.1,68.8c-0.4,0-0.7-0.3-0.7-0.8c0-0.3,0.2-0.6,0.4-0.7l10.9-4.6c0.4-0.2,0.8,0,1,0.4s0,0.8-0.4,1
			l-10.9,4.6C28.3,68.8,28.2,68.8,28.1,68.8z"/>
		<path class="st2" d="M48.5,60.3c-0.3,0-0.6-0.2-0.7-0.5c-0.2-0.4,0-0.8,0.4-1c0,0,0,0,0,0l8-3.4c0.4-0.2,0.8,0,1,0.4
			c0.2,0.4,0,0.8-0.4,1l-8,3.4C48.6,60.3,48.6,60.3,48.5,60.3z"/>
		<path class="st2" d="M39.1,80.8c-0.4,0-0.7-0.3-0.7-0.7c0-0.3,0.2-0.5,0.4-0.6l9.3-4.9c0.4-0.2,0.8,0,1,0.3c0.2,0.4,0.1,0.8-0.3,1
			c0,0,0,0,0,0l-9.3,4.9C39.3,80.8,39.2,80.8,39.1,80.8z"/>
		<path class="st2" d="M39.1,36.3L39.1,36.3c0.4,0,0.7,0.3,0.7,0.7v15.6c0,0.4-0.3,0.7-0.7,0.7h0c-0.4,0-0.7-0.3-0.7-0.7V37
			C38.4,36.6,38.7,36.3,39.1,36.3z"/>
		<path class="st2" d="M48.5,75.9c-0.4,0-0.7-0.3-0.7-0.7c0,0,0,0,0,0v-15c0-0.4,0.3-0.7,0.7-0.7c0.4,0,0.7,0.3,0.7,0.7v15
			C49.2,75.6,48.9,75.9,48.5,75.9z"/>
		<path class="st2" d="M56.4,56.9c-0.4,0-0.7-0.3-0.7-0.7V46.1c0-0.4,0.3-0.8,0.7-0.8s0.8,0.3,0.8,0.7c0,0,0,0.1,0,0.1v10.2
			C57.2,56.6,56.8,56.9,56.4,56.9C56.4,56.9,56.4,56.9,56.4,56.9z"/>
		<path class="st2" d="M88.9,55.1V44.2H75.7v10.9h-5.1V28.2h5.1v11.3h13.2V28.2h5v26.9H88.9z"/>
		<path class="st2" d="M105.7,32.7h-8.5v-4.6h22.1v4.6h-8.5V55h-5.1L105.7,32.7z"/>
		<path class="st2" d="M145.8,35.5L137,47.2h-1l-8.6-11.7v19.6h-5.1V28.2h5.8l8.4,11.6l8.4-11.6h5.8v26.9h-5.1L145.8,35.5z"/>
		<path class="st2" d="M160.7,28.1v22.2h13.8V55h-18.9V28.1H160.7z"/>
		<path class="st2" d="M182.5,39.5v-5.7h4.7v5.7h5.7v4.3h-5.7v5.8h-4.7v-5.8h-5.6v-4.3H182.5z"/>
		<path class="st2" d="M84.8,68.7l-3,10.8h-1.5l-2.2-7.8c-0.1-0.4-0.2-0.7-0.2-1.1h0c0,0.4-0.1,0.7-0.2,1.1l-2.2,7.9H74l-3.2-10.8
			h1.4l2.3,8.3c0.1,0.4,0.2,0.7,0.2,1.1l0,0c0-0.4,0.1-0.7,0.2-1.1l2.4-8.3h1.2l2.3,8.3c0.1,0.3,0.2,0.7,0.2,1l0,0
			c0-0.4,0.1-0.7,0.2-1l2.2-8.3H84.8z"/>
		<path class="st2" d="M92.1,75.9h-5.4c0,0.7,0.2,1.4,0.7,2c0.5,0.5,1.1,0.7,1.8,0.7c0.9,0,1.7-0.3,2.4-0.9v1.2
			c-0.8,0.5-1.7,0.8-2.7,0.7c-1,0.1-1.9-0.3-2.6-1c-1.3-1.8-1.2-4.1,0.1-5.9c0.6-0.7,1.6-1.1,2.5-1.1c0.9-0.1,1.7,0.3,2.3,1
			c0.6,0.8,0.9,1.7,0.8,2.7V75.9z M90.8,74.8c0-0.6-0.1-1.2-0.5-1.7c-0.4-0.4-0.9-0.6-1.4-0.6c-0.6,0-1.1,0.2-1.5,0.6
			c-0.4,0.4-0.7,1-0.8,1.6H90.8z"/>
		<path class="st2" d="M95.2,78.3L95.2,78.3l0,1.1h-1.2V68h1.2v5.1h0c0.5-1,1.6-1.5,2.7-1.5c0.9,0,1.7,0.3,2.3,1
			c0.6,0.8,0.9,1.8,0.8,2.8c0.1,1.1-0.3,2.2-0.9,3.1c-0.6,0.8-1.6,1.2-2.6,1.2C96.5,79.7,95.6,79.2,95.2,78.3z M95.2,75.2v1.1
			c0,0.6,0.2,1.2,0.6,1.6c0.8,0.9,2.2,0.9,3.1,0c0.1-0.1,0.1-0.2,0.2-0.2c0.5-0.7,0.7-1.5,0.6-2.4c0-0.7-0.2-1.4-0.6-2
			c-0.4-0.5-1-0.8-1.6-0.7c-0.7,0-1.3,0.3-1.7,0.7C95.3,73.9,95.1,74.5,95.2,75.2L95.2,75.2z"/>
		<path class="st2" d="M114.7,79c-0.9,0.4-1.9,0.7-3,0.6c-1.4,0.1-2.7-0.5-3.7-1.5c-0.9-1.1-1.4-2.5-1.4-3.9c-0.1-1.5,0.5-3,1.6-4.2
			c1-1.1,2.5-1.6,3.9-1.6c0.9,0,1.7,0.1,2.5,0.4v1.3c-0.8-0.4-1.7-0.6-2.5-0.6c-1.1,0-2.2,0.4-3,1.2c-0.8,0.9-1.2,2.1-1.2,3.3
			c-0.1,1.1,0.3,2.3,1.1,3.1c0.7,0.8,1.8,1.2,2.8,1.2c1,0,2-0.2,2.8-0.7V79z"/>
		<path class="st2" d="M119.9,79.6c-1,0-2-0.3-2.7-1.1c-0.7-0.8-1.1-1.8-1-2.9c-0.1-1.1,0.3-2.2,1.1-3c0.8-0.7,1.8-1.1,2.9-1.1
			c1-0.1,2,0.3,2.7,1.1c0.7,0.8,1,1.9,1,2.9c0,1.1-0.3,2.1-1.1,2.9C122,79.2,120.9,79.6,119.9,79.6z M120,72.6
			c-0.7,0-1.4,0.3-1.9,0.8c-0.5,0.6-0.7,1.4-0.7,2.2c-0.1,0.8,0.2,1.6,0.7,2.2c0.5,0.5,1.2,0.8,1.9,0.8c0.7,0.1,1.4-0.2,1.9-0.8
			c0.5-0.6,0.7-1.4,0.6-2.2c0.1-0.8-0.2-1.6-0.6-2.2C121.4,72.9,120.7,72.5,120,72.6z"/>
		<path class="st2" d="M136.6,79.4h-1.2V75c0.1-0.6-0.1-1.3-0.4-1.9c-0.3-0.4-0.8-0.6-1.3-0.6c-0.5,0-1,0.3-1.3,0.7
			c-0.4,0.5-0.6,1.1-0.5,1.7v4.4h-1.2v-4.5c0-1.5-0.6-2.3-1.7-2.3c-0.5,0-1,0.2-1.3,0.7c-0.4,0.5-0.6,1.1-0.5,1.8v4.4h-1.2v-7.7h1.2
			V73l0,0c0.5-0.9,1.4-1.5,2.4-1.4c0.5,0,1,0.1,1.4,0.4c0.4,0.3,0.7,0.7,0.8,1.2c0.5-1,1.5-1.6,2.6-1.6c1.7,0,2.5,1,2.5,3.1
			L136.6,79.4z"/>
		<path class="st2" d="M140.2,78.3L140.2,78.3V83H139V71.8h1.2v1.4l0,0c0.5-1,1.6-1.6,2.7-1.5c0.9,0,1.8,0.3,2.3,1
			c0.6,0.8,0.9,1.8,0.8,2.8c0,1.1-0.3,2.2-0.9,3.1c-0.6,0.8-1.6,1.2-2.6,1.2C141.6,79.6,140.7,79.1,140.2,78.3z M140.2,75.2v1.1
			c0,0.6,0.2,1.2,0.6,1.6c0.4,0.4,1,0.7,1.6,0.7c0.7,0,1.3-0.3,1.7-0.9c0.5-0.7,0.7-1.5,0.6-2.4c0-0.7-0.2-1.4-0.6-2
			c-0.4-0.5-1-0.8-1.6-0.7c-0.7,0-1.3,0.3-1.7,0.7C140.4,73.9,140.2,74.5,140.2,75.2L140.2,75.2z"/>
		<path class="st2" d="M151.2,79.6c-1,0-2-0.3-2.7-1.1c-0.7-0.8-1.1-1.8-1-2.9c-0.1-1.1,0.3-2.2,1.1-3c0.8-0.7,1.8-1.1,2.9-1.1
			c1-0.1,2,0.3,2.7,1.1c0.7,0.8,1,1.8,1,2.9c0.1,1.1-0.3,2.1-1,2.9C153.3,79.3,152.3,79.7,151.2,79.6z M151.3,72.6
			c-0.7,0-1.4,0.3-1.9,0.8c-0.5,0.6-0.7,1.4-0.7,2.2c-0.1,0.8,0.2,1.6,0.7,2.2c0.5,0.5,1.2,0.8,1.9,0.8c0.7,0.1,1.4-0.2,1.9-0.8
			c0.5-0.6,0.7-1.4,0.6-2.2c0.1-0.8-0.2-1.6-0.6-2.2C152.7,72.9,152,72.5,151.3,72.6z"/>
		<path class="st2" d="M163.4,79.4h-1.2v-4.4c0-1.6-0.6-2.4-1.8-2.4c-0.6,0-1.2,0.2-1.5,0.7c-0.4,0.5-0.6,1.1-0.6,1.7v4.4h-1.2v-7.7
			h1.2V73l0,0c0.5-0.9,1.5-1.5,2.6-1.4c0.7,0,1.4,0.3,1.9,0.8c0.5,0.7,0.7,1.5,0.7,2.3V79.4z"/>
		<path class="st2" d="M171.9,75.9h-5.4c0,0.7,0.2,1.4,0.7,2c0.5,0.5,1.1,0.7,1.8,0.7c0.9,0,1.7-0.3,2.4-0.9v1.2
			c-0.8,0.5-1.7,0.8-2.7,0.7c-1,0-1.9-0.3-2.6-1c-0.7-0.8-1-1.9-0.9-2.9c0-1.1,0.3-2.1,1-2.9c0.6-0.7,1.6-1.1,2.5-1.1
			c0.9,0,1.7,0.3,2.3,1c0.6,0.8,0.9,1.7,0.8,2.7V75.9z M170.6,74.8c0-0.6-0.2-1.2-0.5-1.7c-0.4-0.4-0.9-0.6-1.4-0.6
			c-0.6,0-1.1,0.2-1.5,0.6c-0.4,0.4-0.7,1-0.8,1.6H170.6z"/>
		<path class="st2" d="M180.1,79.4h-1.2v-4.4c0-1.6-0.6-2.4-1.8-2.4c-0.6,0-1.2,0.2-1.5,0.7c-0.4,0.5-0.6,1.1-0.6,1.7v4.4h-1.2v-7.7
			h1.2V73l0,0c0.5-0.9,1.5-1.5,2.6-1.4c0.7,0,1.4,0.3,1.9,0.8c0.5,0.7,0.7,1.5,0.7,2.3V79.4z"/>
		<path class="st2" d="M186,79.3c-0.4,0.2-0.7,0.3-1.1,0.2c-1.3,0-2-0.8-2-2.3v-4.6h-1.3v-1h1.3v-1.9l1.2-0.4v2.3h1.9v1h-1.9v4.4
			c0,0.4,0.1,0.8,0.3,1.1c0.2,0.2,0.5,0.4,0.9,0.3c0.3,0,0.6-0.1,0.8-0.3L186,79.3z"/>
		<path class="st2" d="M187.2,79.1v-1.3c0.6,0.5,1.4,0.7,2.2,0.7c1.1,0,1.6-0.4,1.6-1.1c0-0.2,0-0.4-0.1-0.5
			c-0.1-0.1-0.2-0.3-0.4-0.4c-0.2-0.1-0.4-0.2-0.6-0.3l-0.7-0.3c-0.3-0.1-0.6-0.3-0.9-0.4c-0.2-0.1-0.4-0.3-0.6-0.5
			c-0.2-0.2-0.3-0.4-0.4-0.6c-0.1-0.2-0.1-0.5-0.1-0.8c0-0.3,0.1-0.6,0.2-0.9c0.2-0.3,0.4-0.5,0.7-0.7c0.3-0.2,0.6-0.3,0.9-0.4
			c0.4-0.1,0.7-0.1,1.1-0.1c0.6,0,1.2,0.1,1.8,0.3v1.2c-0.6-0.4-1.3-0.6-1.9-0.6c-0.2,0-0.4,0-0.6,0.1c-0.2,0-0.3,0.1-0.5,0.2
			c-0.1,0.1-0.2,0.2-0.3,0.3c-0.1,0.1-0.1,0.3-0.1,0.4c0,0.2,0,0.3,0.1,0.5c0.1,0.1,0.2,0.3,0.3,0.4c0.2,0.1,0.3,0.2,0.5,0.3
			l0.7,0.3c0.3,0.1,0.6,0.3,0.9,0.4c0.2,0.1,0.5,0.3,0.7,0.5c0.2,0.2,0.3,0.4,0.4,0.6c0.2,0.6,0.2,1.2-0.1,1.8
			c-0.2,0.3-0.4,0.5-0.7,0.7c-0.3,0.2-0.6,0.3-1,0.4c-0.4,0.1-0.8,0.1-1.1,0.1C188.5,79.6,187.8,79.5,187.2,79.1z"/>
	</g>
</g>
</svg>
