<?xml version="1.0" encoding="utf-8"?>
<!-- Generator: Adobe Illustrator 23.1.0, SVG Export Plug-In . SVG Version: 6.00 Build 0)  -->
<svg version="1.1" id="Layer_1" xmlns="http://www.w3.org/2000/svg" xmlns:xlink="http://www.w3.org/1999/xlink" x="0px" y="0px"
	 viewBox="0 0 364.4 364.6" style="enable-background:new 0 0 364.4 364.6;" xml:space="preserve">
<style type="text/css">
	.st0{fill:#2C93D8;}
	.st1{fill:#FD3B30;}
	.st2{fill:#64A7E7;}
	.st3{fill:#FEFEFE;}
</style>
<circle class="st0" cx="182.2" cy="182.3" r="182.2"/>
<g>
	<g>
		<path class="st1" d="M278.5,78.8c-4,4.8-7.3,10.2-11,15.3c-7.7,10.7-15.3,21.4-23,32.2c-6.3,8.8-12.6,17.7-18.9,26.6
			c-0.1,0.1-0.1,0.3-0.1,0.5c-1.4,1.5-2.5,3.1-3.5,4.9c-0.6,0.7-1.2,1.4-1.7,2.1c-7.1,10-14.2,19.9-21.3,29.9
			c-1.3,1.9-2.5,3.9-4.2,5.5c-0.6-0.6-1.2-1.2-1.8-1.8c-8.8-8.2-17.6-16.5-26.4-24.7c0.2-0.3,0.4-0.8,0.7-1
			c3.9-3.2,7.8-6.2,11.7-9.5c7.9-6.6,15.7-13.3,23.6-19.9c1.8-1.1,3.4-2.6,4.9-4c0.5-0.3,1-0.6,1.4-1c14.2-11.8,28.3-23.7,42.5-35.6
			c8.1-6.8,16.1-13.6,24.2-20.4c2.2-1.7,4.3-3.3,6.5-5l0-0.1c0,0.3,0,0.7-0.1,1C280.7,75.4,279.5,77,278.5,78.8z"/>
		<path class="st2" d="M207.6,134.8c-1.5,1.5-3.1,2.9-4.9,4c-1-0.4-2-0.8-3-1.3c-5.1-2.2-10.4-3.6-15.9-3.8
			c-11.6-0.4-21.9,2.9-30.9,10.3c-10.6,8.6-16,19.9-16.8,33.4c-0.5,9.1,2,17.5,6.5,25.4c-1,1.8-2.1,3.4-3.5,4.9
			c-0.3-0.3-0.8-0.5-0.9-0.8c-1.5-5.1-5.8-5-9.9-5.2c-6.8-0.2-13.6-0.2-20.4-0.6c-8.2-0.4-16.4-0.8-24.6-1c-2.2-0.1-4.4-0.4-6.7-0.9
			c5.5-2.5,11.1-5,16.6-7.5c4.7-2.1,9.4-4.1,14.1-6.1c1.6-0.7,3.2-1.3,4.8-2c5.2-2.2,10.3-4.6,15.5-6.7c1.8-0.8,2.8-1.9,2.9-3.8
			c0.5-5.9,2.2-11.4,4.9-16.6c0.7-1.3,0.6-2.2-0.5-3.3c-4.7-5.1-9.4-10.3-14.1-15.4c-0.4-0.4-0.9-0.7-1.3-1.1c-0.8-1-1.6-2-2.5-3
			c0.1-0.1,0.2-0.3,0.3-0.4c4.2,1.6,8.4,3.2,12.6,4.9c4,1.6,8,3.1,12,4.8c2,0.8,3.3-0.3,4.4-1.4c3.6-3.6,7.8-6.2,12.2-8.5
			c1.1-0.6,1.6-1.3,1.5-2.6c-0.3-5.9,0.4-11.8,0.6-17.7c0.3-8.7,0.8-17.4,1-26.1c0.1-2.3,0.4-4.6,0.4-6.9c0.5-2.1,0.5-4.3,0.6-6.9
			c1.3,2.6,2.3,4.8,3.4,6.9c0.2,0.3,0.3,0.7,0.5,1c0,0.4,0.1,0.8,0.5,1c0.1,0.6,0.2,1.2,0.4,1.7c6.3,14.4,12.7,28.8,19,43.2
			c0.4,1,0.8,1.5,1.9,1.6C195.3,129.1,201.6,131.5,207.6,134.8z"/>
		<path class="st3" d="M139.1,207.8c1.4-1.4,2.6-3.1,3.5-4.9c1.2-1.5,2.3-3,3.4-4.5c7-9.6,13.3-19.7,20.6-29.1
			c8.8,8.2,17.6,16.5,26.4,24.7c0.6,0.6,1.2,1.2,1.8,1.8c-5,4.2-9.9,8.3-14.8,12.6c-5.2,4.5-10.8,8.6-15.7,13.4
			c-1.8,1-3.4,2.4-4.8,3.9c-7.9,6.5-15.8,13-23.6,19.6c-17.9,14.9-35.7,29.9-53.6,44.9c-0.7,0.6-1.5,1.1-2.2,1.6l0,0.1
			c0.2-2.7,2.3-4.2,3.7-6.2c7.7-11,15.5-21.8,23.3-32.7c1.7-2.4,3.6-4.5,5-7.1c6.3-8.8,12.7-17.6,18.9-26.5
			C133.8,215.6,136.8,211.9,139.1,207.8z"/>
		<path class="st2" d="M159.5,225.7c1.4-1.5,3-2.9,4.8-3.9c4.8,1.1,9.5,2.8,14.6,3c11.8,0.5,22.3-2.8,31.4-10.3
			c10.6-8.6,16-19.9,16.8-33.4c0.5-8.1-1.7-15.6-5-22.8c1-1.8,2.1-3.4,3.5-4.9c2.2,4,6.3,2.6,9.5,2.9c6.7,0.6,13.4,0.3,20.2,0.7
			c8.3,0.5,16.6,0.8,24.8,1c2.3,0.1,4.7,0.3,7.8,0.5c-6.4,2.8-12,5.3-17.7,7.8c-10.4,4.6-20.8,9.1-31.3,13.7
			c-1.4,0.6-2.9,1.3-4.3,1.9c-1.2,0.5-1.7,1.3-1.5,2.5c-0.9,5.3-2,10.6-4.2,15.6c-0.5,1,0.6,1.5,1.1,2c5.8,6.3,11.6,12.6,17.4,18.9
			c0.2,0.2,0.3,0.5,0.8,1.3c-4.9-1.9-9.2-3.6-13.4-5.2c-3.9-1.5-7.8-3-11.6-4.6c-0.9-0.4-1.5-0.4-2.2,0.4c-4.3,4.8-9.2,9-14.9,11.9
			c-0.7,0.4-0.9,0.9-0.9,1.6c-0.1,2.7-0.3,5.5-0.5,8.2c-0.3,7.1-0.6,14.3-0.9,21.4c0,1,0,2-0.1,3c0,0.5,0,1,0,1.5
			c-0.3,7.8-0.7,15.6-1,23.4c-0.1,0-0.3,0.1-0.4,0.1c-1.3-3-2.7-6-4-9c-5.2-11.8-10.4-23.6-15.5-35.4c-0.8-1.8-1.8-3.4-2.3-5.3
			c-0.6-2.4-2-3.5-4.5-3.7C170.1,230,164.7,228.3,159.5,225.7z"/>
	</g>
</g>
</svg>
