<?xml version="1.0" encoding="utf-8"?>
<!-- Generator: Adobe Illustrator 23.1.0, SVG Export Plug-In . SVG Version: 6.00 Build 0)  -->
<svg version="1.1" id="Layer_1" xmlns="http://www.w3.org/2000/svg" xmlns:xlink="http://www.w3.org/1999/xlink" x="0px" y="0px"
	 viewBox="0 0 60 60" style="enable-background:new 0 0 60 60;" xml:space="preserve">
<style type="text/css">
	.st0{fill:#673AB7;}
	.st1{fill:#FBFAFC;}
	.st2{fill:#FEFEFE;}
</style>
<g>
	<path class="st0" d="M5.9,29.9c0-4.4,0-8.8,0-13.2c0-0.5,0.1-0.7,0.5-0.9c7.7-4.4,15.3-8.8,23-13.3c0.4-0.2,0.7-0.2,1.1,0
		C38.3,7,46,11.4,53.7,15.8c0.3,0.2,0.4,0.3,0.4,0.7c0,9,0,18,0,26.9c0,0.3-0.1,0.5-0.4,0.6c-7.8,4.5-15.5,8.9-23.3,13.4
		c-0.3,0.2-0.6,0.2-0.9,0C22.3,53.4,15.1,49.2,7.9,45c-0.5-0.3-1-0.6-1.5-0.9C6,44,5.9,43.7,5.9,43.3C5.9,38.9,5.9,34.4,5.9,29.9z
		 M17,14.5c-0.3,0-0.7,0.1-1.1,0.1c-2.8,0.3-4.5,2.4-4.3,5.1c0.1,1,0.3,1.9,0.6,2.8c1,2.7,2.6,5,4.4,7.1c0.3,0.3,0.3,0.5,0,0.9
		c-0.6,0.7-1.2,1.4-1.7,2.2c-1.6,2.3-3,4.7-3.3,7.5c-0.3,2.5,1.1,4.5,3.5,5.1c1.7,0.4,3.4,0.3,5-0.1c1.2-0.3,2.4-0.6,3.5-1.1
		c2-0.8,4-1.7,5.9-2.9c0.4-0.2,0.7-0.2,1,0c2.3,1.4,4.6,2.5,7.1,3.3c1.5,0.5,3,0.9,4.6,0.9c0.9,0,1.8,0,2.7-0.2
		c2-0.5,3.2-1.8,3.4-3.9c0.1-1.1-0.1-2.2-0.4-3.2c-0.9-2.9-2.6-5.4-4.6-7.7c-0.3-0.3-0.3-0.5,0-0.9c0.9-1,1.7-2.2,2.5-3.3
		c1.2-2,2.3-4.1,2.5-6.4c0.2-2.3-0.9-4.2-3.1-4.9c-1.9-0.6-3.7-0.4-5.6,0c-3.3,0.8-6.3,2.2-9.3,3.9c-0.3,0.2-0.6,0.2-0.9,0
		c-1.4-0.9-2.9-1.6-4.5-2.3C22.6,15.4,20,14.6,17,14.5z"/>
	<path class="st1" d="M17,14.5c2.9,0.1,5.5,0.9,8.1,2c1.5,0.7,3,1.4,4.5,2.3c0.4,0.2,0.6,0.2,0.9,0c2.9-1.7,5.9-3.1,9.3-3.9
		c1.9-0.4,3.7-0.6,5.6,0c2.1,0.7,3.3,2.7,3.1,4.9c-0.3,2.4-1.3,4.5-2.5,6.4c-0.7,1.2-1.5,2.3-2.5,3.3c-0.3,0.3-0.2,0.5,0,0.9
		c1.9,2.3,3.6,4.8,4.6,7.7c0.3,1,0.5,2.1,0.4,3.2c-0.3,2-1.5,3.3-3.4,3.9c-0.9,0.2-1.8,0.2-2.7,0.2c-1.6,0-3.1-0.4-4.6-0.9
		c-2.5-0.8-4.9-2-7.1-3.3c-0.4-0.2-0.7-0.2-1,0c-1.9,1.1-3.8,2-5.9,2.9c-1.1,0.5-2.3,0.8-3.5,1.1c-1.6,0.3-3.3,0.5-5,0.1
		c-2.4-0.6-3.8-2.6-3.5-5.1c0.3-2.9,1.7-5.2,3.3-7.5c0.5-0.7,1.1-1.5,1.7-2.2c0.3-0.3,0.3-0.5,0-0.9c-1.8-2.2-3.4-4.5-4.4-7.1
		c-0.3-0.9-0.5-1.8-0.6-2.8c-0.2-2.7,1.5-4.8,4.3-5.1C16.3,14.6,16.8,14.5,17,14.5z M30,21.1c-0.1,0.1-0.3,0.1-0.4,0.2
		c-3.7,2.4-7,5.1-10,8.3c-0.3,0.3-0.2,0.5,0,0.7c3,3.2,6.4,5.9,10,8.3c0.3,0.2,0.4,0.2,0.7,0c3.7-2.4,7-5.1,10-8.3
		c0.2-0.2,0.4-0.4,0-0.7c-3-3.2-6.4-6-10.1-8.3C30.2,21.3,30.1,21.2,30,21.1z M28.3,39.8c-3.6-2.4-6.9-5.1-9.9-8.3
		c-0.3-0.3-0.4-0.1-0.6,0.1c-1.4,1.7-2.6,3.5-3.5,5.5c-0.6,1.3-1,2.6-0.9,4c0.1,1.1,0.6,1.9,1.7,2.3c0.8,0.3,1.7,0.4,2.6,0.3
		c2.7-0.2,5.2-1.1,7.6-2.2C26.3,41,27.3,40.5,28.3,39.8z M31.7,39.9c0.2,0.1,0.4,0.2,0.5,0.3c2,1.2,4.1,2.1,6.4,2.8
		c1.7,0.5,3.4,0.9,5.2,0.7c2-0.2,2.9-1.3,2.8-3.3c0-0.4-0.1-0.9-0.2-1.3c-0.8-2.9-2.5-5.2-4.3-7.5c-0.3-0.4-0.4,0-0.6,0.1
		c-1.5,1.6-3.2,3.2-4.9,4.6C35,37.5,33.4,38.7,31.7,39.9z M13.4,19.5c0,0.3,0.1,0.8,0.2,1.3c0.8,2.9,2.5,5.3,4.4,7.6
		c0.2,0.3,0.4,0,0.5-0.1c2.8-3,6-5.6,9.4-7.9c0.4-0.2,0.4-0.4,0-0.6c-1.7-0.9-3.5-1.8-5.4-2.5c-2-0.8-4.1-1.1-6.3-1
		C14.5,16.4,13.4,17.6,13.4,19.5z M46.6,19.4c0-1.6-0.7-2.6-2.1-2.9c-1-0.2-1.9-0.1-2.9-0.1c-0.8,0-1.7,0.3-2.5,0.5
		c-2.5,0.7-4.7,1.7-7,2.9c-0.4,0.2-0.4,0.4,0,0.6c3.4,2.3,6.6,4.9,9.4,7.9c0.3,0.3,0.4,0.3,0.6,0c1.3-1.6,2.5-3.3,3.4-5.2
		C46.1,21.9,46.6,20.7,46.6,19.4z"/>
	<path class="st0" d="M30,21.1c0.1,0.1,0.2,0.1,0.3,0.2c3.7,2.4,7.1,5.1,10.1,8.3c0.3,0.3,0.2,0.5,0,0.7c-3,3.2-6.4,5.9-10,8.3
		c-0.3,0.2-0.4,0.2-0.7,0c-3.7-2.4-7-5.1-10-8.3c-0.2-0.2-0.3-0.4,0-0.7c3-3.2,6.4-5.9,10-8.3C29.7,21.3,29.9,21.2,30,21.1z
		 M33.7,30c0-2-1.7-3.7-3.7-3.7c-2,0-3.7,1.7-3.7,3.7c0,1.9,1.8,3.8,3.7,3.8C31.8,33.9,33.7,32,33.7,30z"/>
	<path class="st0" d="M28.3,39.8c-1,0.6-2,1.1-3,1.6c-2.4,1.1-4.9,2-7.6,2.2c-0.9,0.1-1.7,0-2.6-0.3c-1.1-0.4-1.6-1.1-1.7-2.3
		c-0.1-1.4,0.3-2.7,0.9-4c0.9-2,2.2-3.8,3.5-5.5c0.2-0.2,0.3-0.4,0.6-0.1C21.4,34.7,24.7,37.4,28.3,39.8z"/>
	<path class="st0" d="M31.7,39.9c1.7-1.1,3.3-2.3,4.9-3.6c1.7-1.4,3.4-3,4.9-4.6c0.1-0.2,0.3-0.5,0.6-0.1c1.8,2.3,3.5,4.6,4.3,7.5
		c0.1,0.4,0.2,0.9,0.2,1.3c0.1,2-0.8,3.1-2.8,3.3c-1.8,0.2-3.5-0.2-5.2-0.7c-2.2-0.7-4.3-1.6-6.4-2.8C32.1,40.1,31.9,40,31.7,39.9z"
		/>
	<path class="st0" d="M13.4,19.5c0-1.9,1.1-3.1,2.7-3.2c2.2-0.1,4.3,0.3,6.3,1c1.9,0.7,3.7,1.5,5.4,2.5c0.4,0.2,0.4,0.4,0,0.6
		c-3.4,2.3-6.6,4.9-9.4,7.9c-0.1,0.1-0.2,0.4-0.5,0.1c-1.9-2.3-3.6-4.7-4.4-7.6C13.5,20.3,13.4,19.9,13.4,19.5z"/>
	<path class="st0" d="M46.6,19.4c0,1.3-0.5,2.5-1,3.7c-0.9,1.9-2.1,3.6-3.4,5.2c-0.2,0.3-0.4,0.3-0.6,0c-2.8-3-6-5.6-9.4-7.9
		c-0.4-0.3-0.4-0.4,0-0.6c2.2-1.2,4.5-2.3,7-2.9c0.8-0.2,1.7-0.5,2.5-0.5c1,0,1.9-0.2,2.9,0.1C45.9,16.8,46.7,17.8,46.6,19.4z"/>
	<path class="st2" d="M33.7,30c0,2-1.9,3.8-3.8,3.8c-1.9,0-3.7-1.9-3.7-3.8c0-2,1.7-3.7,3.7-3.7C32,26.3,33.7,28,33.7,30z"/>
</g>
</svg>
