<svg xmlns="http://www.w3.org/2000/svg" viewBox="0 0 309.7 94.27"><g id="Layer_2" data-name="Layer 2"><g id="Layer_1-2" data-name="Layer 1"><path d="M1.19,71.82A1.19,1.19,0,0,1,0,70.63V9.57a1.19,1.19,0,0,1,2.37,0V70.63A1.19,1.19,0,0,1,1.19,71.82Z"/><path d="M59.82,6.07l-.25,0L42.48,2.35A1.19,1.19,0,1,1,43,0L60.07,3.72a1.19,1.19,0,0,1-.25,2.35Z"/><path d="M29.87,4.76a1.18,1.18,0,0,1-.22-2.35L42.52,0A1.18,1.18,0,1,1,43,2.35L30.08,4.74A.75.75,0,0,1,29.87,4.76Z"/><path d="M16.22,14.89a1.24,1.24,0,0,1-.33,0L1.55,10.71a1.19,1.19,0,0,1,.66-2.28l14.34,4.14a1.18,1.18,0,0,1-.33,2.32Z"/><path d="M16.22,79a1.14,1.14,0,0,1-.51-.11l-15-7.2a1.17,1.17,0,0,1-.55-1.58,1.18,1.18,0,0,1,1.58-.56l15,7.2A1.18,1.18,0,0,1,16.22,79Z"/><path d="M45.49,28.74a1.2,1.2,0,0,1-1.19-1.18L44.18,7.82a1.19,1.19,0,0,1,1.18-1.2h0A1.18,1.18,0,0,1,46.55,7.8l.13,19.75a1.19,1.19,0,0,1-1.18,1.19Z"/><rect x="28.68" y="2.39" width="2.37" height="7.82" rx="1.19"/><path d="M16.22,79A1.18,1.18,0,0,1,15,77.83V13.71a1.19,1.19,0,1,1,2.37,0V77.83A1.18,1.18,0,0,1,16.22,79Z"/><path d="M45.37,9a1,1,0,0,1-.3,0L29.57,5a1.19,1.19,0,0,1-.86-1.44,1.2,1.2,0,0,1,1.45-.86l15.5,4A1.19,1.19,0,0,1,45.37,9Z"/><path d="M32.08,11.27a1.1,1.1,0,0,1-.31,0l-14.58-4a1.18,1.18,0,0,1-.83-1.45A1.2,1.2,0,0,1,17.82,5l14.57,4a1.18,1.18,0,0,1-.31,2.33Z"/><path d="M45.37,9a1.19,1.19,0,0,1-.27-2.35L58.64,3.53a1.19,1.19,0,0,1,.54,2.31L45.63,9Z"/><path d="M16.53,79a1.17,1.17,0,0,1-1.07-.68A1.19,1.19,0,0,1,16,76.75L31.44,69.5a1.19,1.19,0,0,1,1,2.15L17,78.9A1.1,1.1,0,0,1,16.53,79Z"/><path d="M60.1,12.59h0a1.18,1.18,0,0,1-1.18-1.19L59,4.88A1.18,1.18,0,0,1,60.21,3.7h0A1.18,1.18,0,0,1,61.4,4.88l-.12,6.52A1.18,1.18,0,0,1,60.1,12.59Z"/><path d="M45.49,28.74a1,1,0,0,1-.33,0L31.86,24.9a1.19,1.19,0,0,1,.65-2.28l13.3,3.79a1.19,1.19,0,0,1-.32,2.33Z"/><path d="M31.94,71.77h0c-.65,0-1.18-.16-1.18-.35V64.9c0-.19.53-.34,1.19-.34h0c.66,0,1.19.15,1.19.35l0,6.51C33.13,71.61,32.6,71.77,31.94,71.77Z"/><path d="M31.94,33.65a1.18,1.18,0,0,1-.39-2.3l14-5a1.19,1.19,0,1,1,.79,2.24l-14,5A1.39,1.39,0,0,1,31.94,33.65Z"/><path d="M32,33.72h0a1.18,1.18,0,0,1-1.18-1.19l0-22.45A1.2,1.2,0,0,1,32.09,8.9h0a1.19,1.19,0,0,1,1.19,1.19l-.05,22.44A1.19,1.19,0,0,1,32,33.72Z"/><path d="M1.48,10.42a1.19,1.19,0,0,1-.23-2.36L17.4,4.93a1.19,1.19,0,0,1,.46,2.33L1.7,10.4Z"/><path d="M16.22,14.89A1.18,1.18,0,0,1,16,12.55L31.82,8.93a1.18,1.18,0,1,1,.52,2.31L16.49,14.86A1.24,1.24,0,0,1,16.22,14.89Z"/><path d="M46.14,40.81h0A1.18,1.18,0,0,1,45,39.62L45,15.9a1.18,1.18,0,0,1,1.18-1.18h0a1.18,1.18,0,0,1,1.18,1.19l-.08,23.71A1.19,1.19,0,0,1,46.14,40.81Z"/><path d="M62.79,21.64a1.19,1.19,0,0,1-1.14-.87,1.17,1.17,0,0,1,.82-1.46l15-4.24a1.19,1.19,0,1,1,.65,2.28l-15,4.24A1.19,1.19,0,0,1,62.79,21.64Z"/><rect x="68.45" y="5.53" width="2.37" height="16.86" transform="translate(39.19 78.12) rotate(-75.95)"/><path d="M30.11,46.88a1.19,1.19,0,0,1-.4-2.3l16.7-6.08a1.19,1.19,0,0,1,.81,2.24l-16.7,6.07A1.18,1.18,0,0,1,30.11,46.88Z"/><path d="M62.74,91h0a1.2,1.2,0,0,1-1.19-1.19l.05-25.7a1.18,1.18,0,0,1,1.19-1.18h0A1.19,1.19,0,0,1,64,64.13l0,25.69A1.2,1.2,0,0,1,62.74,91Z"/><path d="M77.81,40.91a1.2,1.2,0,0,1-1.19-1.19V16A1.19,1.19,0,0,1,79,16V39.72A1.19,1.19,0,0,1,77.81,40.91Z"/><path d="M29.66,65a1.18,1.18,0,0,1-1.19-1.18V45.92a1.19,1.19,0,1,1,2.37,0V63.83A1.18,1.18,0,0,1,29.66,65Z"/><path d="M77.81,40.91a1.19,1.19,0,0,1-.42-2.3l12.49-4.69a1.19,1.19,0,0,1,.83,2.22L78.23,40.83A1.25,1.25,0,0,1,77.81,40.91Z"/><path d="M45.16,53.18a1.19,1.19,0,0,1-1.11-.78,1.18,1.18,0,0,1,.7-1.52l17.6-6.55a1.19,1.19,0,0,1,.83,2.23L45.57,53.1A1.15,1.15,0,0,1,45.16,53.18Z"/><path d="M45.16,53.18a1.31,1.31,0,0,1-.43-.08L29.82,47.32a1.2,1.2,0,0,1-.68-1.54,1.19,1.19,0,0,1,1.54-.67l14.91,5.77a1.2,1.2,0,0,1,.68,1.54A1.19,1.19,0,0,1,45.16,53.18Z"/><path d="M62.79,46.37a1.26,1.26,0,0,1-.38-.06L45.77,40.75a1.19,1.19,0,0,1,.75-2.26l16.64,5.57a1.19,1.19,0,0,1-.37,2.31Z"/><path d="M90.17,36.11a1.12,1.12,0,0,1-.36,0l-12.36-4a1.18,1.18,0,0,1-.77-1.49,1.2,1.2,0,0,1,1.5-.77l12.36,4a1.18,1.18,0,0,1-.37,2.31Z"/><path d="M46.22,17.41a1.19,1.19,0,0,1-.32-2.33l15.24-4.31a1.18,1.18,0,1,1,.64,2.28L46.55,17.36A1.26,1.26,0,0,1,46.22,17.41Z"/><path d="M63.1,21.74a.92.92,0,0,1-.29,0L45.93,17.37a1.19,1.19,0,1,1,.59-2.3L63.4,19.4a1.19,1.19,0,0,1-.3,2.34Z"/><path d="M45.16,71.61a1.09,1.09,0,0,1-.46-.1L29.19,64.92a1.19,1.19,0,1,1,.93-2.19l15.51,6.6a1.19,1.19,0,0,1-.47,2.28Z"/><path d="M62.74,91a1.16,1.16,0,0,1-.51-.12L45.49,83V71.26a1.19,1.19,0,1,1,2.37,0v10.2l15.39,7.29A1.19,1.19,0,0,1,62.74,91Z"/><path d="M44.94,71.52h0a1.17,1.17,0,0,1-1.18-1.19L43.83,52A1.2,1.2,0,0,1,45,50.8h0A1.19,1.19,0,0,1,46.21,52l-.08,18.35A1.18,1.18,0,0,1,44.94,71.52Z"/><path d="M45.16,71.61a1.19,1.19,0,0,1-.46-2.28l17.58-7.39a1.18,1.18,0,1,1,.92,2.18l-17.58,7.4A1.22,1.22,0,0,1,45.16,71.61Z"/><path d="M77.81,57.88a1.19,1.19,0,0,1-1.09-.73,1.18,1.18,0,0,1,.63-1.55l12.82-5.39a1.18,1.18,0,1,1,.92,2.18l-12.82,5.4A1.22,1.22,0,0,1,77.81,57.88Z"/><path d="M62.78,90.81a1.19,1.19,0,0,1-.55-2.24l15-7.94a1.19,1.19,0,0,1,1.6.5,1.18,1.18,0,0,1-.49,1.6l-15,7.94A1.14,1.14,0,0,1,62.78,90.81Z"/><rect x="61.59" y="19.26" width="2.37" height="27.37" rx="1.19"/><path d="M77.81,83a1.19,1.19,0,0,1-1.19-1.19V57.71a1.19,1.19,0,0,1,2.38,0V81.84A1.19,1.19,0,0,1,77.81,83Z"/><path d="M90.63,52.49a1.19,1.19,0,0,1-1.18-1.19V35a1.19,1.19,0,1,1,2.37,0V51.3A1.19,1.19,0,0,1,90.63,52.49Z"/><path d="M142.8,49.46V32H121.57V49.46h-8.15V6.26h8.15v18.2H142.8V6.26h8.08v43.2Z"/><path d="M169.71,13.6H156V6.2h35.55v7.4h-13.7V49.4h-8.15Z"/><path d="M234.15,18.11,220.08,36.87h-1.61L204.71,18.05V49.46h-8.15V6.26h9.38l13.52,18.57L233,6.26h9.32v43.2h-8.14Z"/><path d="M258.1,6.2V41.87h22.22V49.4H250V6.2Z"/><path d="M293,24.53v-9.2h7.47v9.2h9.2v6.85h-9.2v9.25H293V31.38H284V24.53Z"/><path d="M136.21,71.3l-4.88,17.29H129L125.4,76a8,8,0,0,1-.28-1.76h-.05a8.37,8.37,0,0,1-.31,1.73l-3.58,12.66h-2.35L113.77,71.3H116l3.67,13.26A8.32,8.32,0,0,1,120,86.3H120a10.38,10.38,0,0,1,.38-1.74l3.82-13.26h1.94l3.66,13.36a9.28,9.28,0,0,1,.29,1.62h0a9.1,9.1,0,0,1,.33-1.67L134,71.3Z"/><path d="M147.85,82.91h-8.72a4.56,4.56,0,0,0,1.11,3.18,3.83,3.83,0,0,0,2.92,1.13A6,6,0,0,0,147,85.84V87.7a7.13,7.13,0,0,1-4.3,1.18,5.2,5.2,0,0,1-4.11-1.68,7.89,7.89,0,0,1,.13-9.43A5.25,5.25,0,0,1,142.77,76a4.64,4.64,0,0,1,3.75,1.56,6.58,6.58,0,0,1,1.33,4.36Zm-2-1.67a4.07,4.07,0,0,0-.82-2.67,2.84,2.84,0,0,0-2.26-.95,3.18,3.18,0,0,0-2.38,1,4.61,4.61,0,0,0-1.21,2.62Z"/><path d="M152.86,86.81h-.05v1.78h-2V70.31h2v8.11h.05A4.68,4.68,0,0,1,157.13,76a4.54,4.54,0,0,1,3.72,1.65,6.9,6.9,0,0,1,1.34,4.45,7.68,7.68,0,0,1-1.5,5,5,5,0,0,1-4.13,1.86A4.07,4.07,0,0,1,152.86,86.81Zm-.05-5v1.72a3.65,3.65,0,0,0,1,2.6,3.54,3.54,0,0,0,5.34-.31,6.28,6.28,0,0,0,1-3.82,5,5,0,0,0-1-3.23,3.14,3.14,0,0,0-2.58-1.17,3.51,3.51,0,0,0-2.77,1.2A4.4,4.4,0,0,0,152.81,81.83Z"/><path d="M184.14,87.87a10.15,10.15,0,0,1-4.77,1,7.69,7.69,0,0,1-5.91-2.38,8.79,8.79,0,0,1-2.21-6.23,9.19,9.19,0,0,1,2.49-6.7A8.48,8.48,0,0,1,180.07,71a10,10,0,0,1,4.07.72v2.15a8.23,8.23,0,0,0-4.09-1,6.27,6.27,0,0,0-4.83,2,7.44,7.44,0,0,0-1.85,5.31,7.07,7.07,0,0,0,1.73,5,5.88,5.88,0,0,0,4.54,1.88,8.51,8.51,0,0,0,4.5-1.16Z"/><path d="M192.56,88.88a5.73,5.73,0,0,1-4.37-1.73,6.39,6.39,0,0,1-1.63-4.59,6.66,6.66,0,0,1,1.7-4.86A6.11,6.11,0,0,1,192.85,76a5.51,5.51,0,0,1,4.31,1.7,6.74,6.74,0,0,1,1.55,4.71A6.63,6.63,0,0,1,197,87.1,5.85,5.85,0,0,1,192.56,88.88Zm.14-11.26a3.74,3.74,0,0,0-3,1.3,5.3,5.3,0,0,0-1.11,3.57A5,5,0,0,0,189.7,86a3.83,3.83,0,0,0,3,1.27,3.62,3.62,0,0,0,3-1.25,5.35,5.35,0,0,0,1-3.53,5.48,5.48,0,0,0-1-3.57A3.62,3.62,0,0,0,192.7,77.62Z"/><path d="M219.39,88.59h-2V81.5a5.26,5.26,0,0,0-.64-3,2.39,2.39,0,0,0-2.12-.92,2.66,2.66,0,0,0-2.16,1.16,4.41,4.41,0,0,0-.88,2.77v7h-2V81.26q0-3.65-2.81-3.64a2.58,2.58,0,0,0-2.14,1.09,4.47,4.47,0,0,0-.85,2.84v7h-2V76.25h2v2h0A4.18,4.18,0,0,1,207.72,76a3.58,3.58,0,0,1,2.21.7,3.52,3.52,0,0,1,1.29,1.85,4.41,4.41,0,0,1,4.1-2.55c2.72,0,4.07,1.67,4.07,5Z"/><path d="M225.16,86.81h0v7.46h-2v-18h2v2.17h0A4.66,4.66,0,0,1,229.42,76a4.52,4.52,0,0,1,3.73,1.65,6.9,6.9,0,0,1,1.34,4.45A7.68,7.68,0,0,1,233,87a5,5,0,0,1-4.12,1.86A4.12,4.12,0,0,1,225.16,86.81Zm0-5v1.72a3.68,3.68,0,0,0,1,2.6,3.33,3.33,0,0,0,2.53,1.07,3.29,3.29,0,0,0,2.81-1.38,6.28,6.28,0,0,0,1-3.82,5,5,0,0,0-1-3.23,3.16,3.16,0,0,0-2.58-1.17,3.5,3.5,0,0,0-2.77,1.2A4.4,4.4,0,0,0,225.11,81.83Z"/><path d="M242.8,88.88a5.75,5.75,0,0,1-4.37-1.73,6.44,6.44,0,0,1-1.63-4.59,6.71,6.71,0,0,1,1.7-4.86A6.13,6.13,0,0,1,243.09,76a5.51,5.51,0,0,1,4.31,1.7A6.69,6.69,0,0,1,249,82.37a6.59,6.59,0,0,1-1.67,4.73A5.82,5.82,0,0,1,242.8,88.88ZM243,77.62a3.74,3.74,0,0,0-3,1.3,5.3,5.3,0,0,0-1.11,3.57A5,5,0,0,0,240,86a3.83,3.83,0,0,0,3,1.27,3.62,3.62,0,0,0,3-1.25,5.4,5.4,0,0,0,1-3.53,5.54,5.54,0,0,0-1-3.57A3.62,3.62,0,0,0,243,77.62Z"/><path d="M262.36,88.59h-2v-7q0-3.93-2.87-3.93a3.09,3.09,0,0,0-2.45,1.12,4.1,4.1,0,0,0-1,2.81v7h-2V76.25h2v2h0A4.45,4.45,0,0,1,258.19,76a3.79,3.79,0,0,1,3.1,1.3A5.89,5.89,0,0,1,262.36,81Z"/><path d="M276,82.91h-8.71a4.56,4.56,0,0,0,1.11,3.18,3.83,3.83,0,0,0,2.92,1.13,6.05,6.05,0,0,0,3.83-1.38V87.7a7.16,7.16,0,0,1-4.3,1.18,5.24,5.24,0,0,1-4.12-1.68,6.91,6.91,0,0,1-1.49-4.73,6.76,6.76,0,0,1,1.63-4.7A5.23,5.23,0,0,1,270.93,76a4.67,4.67,0,0,1,3.75,1.56A6.58,6.58,0,0,1,276,81.88Zm-2-1.67a4,4,0,0,0-.83-2.67,2.82,2.82,0,0,0-2.26-.95,3.17,3.17,0,0,0-2.37,1,4.61,4.61,0,0,0-1.21,2.62Z"/><path d="M289.24,88.59h-2v-7q0-3.93-2.86-3.93a3.11,3.11,0,0,0-2.46,1.12,4.1,4.1,0,0,0-1,2.81v7h-2V76.25h2v2h0A4.45,4.45,0,0,1,285.07,76a3.79,3.79,0,0,1,3.1,1.3A5.89,5.89,0,0,1,289.24,81Z"/><path d="M298.69,88.47a3.75,3.75,0,0,1-1.84.39q-3.24,0-3.24-3.62V77.93h-2.13V76.25h2.13v-3l2-.64v3.66h3.11v1.68h-3.11v7a2.87,2.87,0,0,0,.42,1.77,1.68,1.68,0,0,0,1.4.53,2,2,0,0,0,1.29-.41Z"/><path d="M300.59,88.14V86a5.81,5.81,0,0,0,3.55,1.2q2.61,0,2.61-1.74a1.51,1.51,0,0,0-.23-.84,2.31,2.31,0,0,0-.6-.61,4.93,4.93,0,0,0-.89-.47l-1.11-.44q-.81-.33-1.44-.66a4.15,4.15,0,0,1-1-.75,2.68,2.68,0,0,1-.63-.94,3.41,3.41,0,0,1-.21-1.25A2.89,2.89,0,0,1,301,78a3.43,3.43,0,0,1,1.06-1.12,4.84,4.84,0,0,1,1.51-.68,6.42,6.42,0,0,1,1.75-.23,7.06,7.06,0,0,1,2.87.55v2a5.6,5.6,0,0,0-3.13-.89,3.46,3.46,0,0,0-1,.13,2.48,2.48,0,0,0-.77.35,1.82,1.82,0,0,0-.49.55,1.41,1.41,0,0,0-.18.71,1.61,1.61,0,0,0,.18.8,1.86,1.86,0,0,0,.51.58,4.2,4.2,0,0,0,.82.46l1.1.45c.54.21,1,.42,1.47.64a5.13,5.13,0,0,1,1.11.75,3,3,0,0,1,.7,1,3.4,3.4,0,0,1-.15,2.88A3.5,3.5,0,0,1,307.29,88a4.77,4.77,0,0,1-1.56.66,7.36,7.36,0,0,1-1.84.22A7,7,0,0,1,300.59,88.14Z"/></g></g></svg>